<?xml version="1.0" encoding="UTF-8"?>
<svg version="1.1" xmlns="http://www.w3.org/2000/svg" width="600" height="600">
<path d="M0 0 C4.38934476 3.51538904 8.5356406 7.25215315 12.62890625 11.10546875 C13.53382813 11.91371094 13.53382813 11.91371094 14.45703125 12.73828125 C32.43207707 29.45339396 44.42755446 56.83739941 45.8059082 81.23901367 C46.50802252 119.58676355 37.36748277 149.36791193 10.12091184 177.6719923 C5.93264175 181.96666146 1.69290067 186.21014468 -2.54467773 190.45605469 C-3.95851342 191.87616859 -5.37216384 193.29646696 -6.78564453 194.7169342 C-11.39261969 199.34477091 -16.00476747 203.96743485 -20.6171875 208.58984375 C-22.21215528 210.18886422 -23.80709083 211.78791683 -25.40199471 213.38700104 C-32.89053914 220.89454878 -40.3814591 228.3997162 -47.87532943 235.90194774 C-56.50299112 244.53939798 -65.12229209 253.1850813 -73.73466057 261.83777976 C-80.41154953 268.54485375 -87.09612032 275.24420931 -93.78646332 281.93786263 C-97.77439929 285.92814396 -101.75899135 289.92163203 -105.73547173 293.92333221 C-109.47370484 297.68489625 -113.22140857 301.43676257 -116.97644806 305.18154716 C-118.34805176 306.55265683 -119.71627352 307.92715984 -121.08072853 309.30538368 C-129.63579416 317.941892 -137.70753266 325.72346278 -149.62109375 329.41796875 C-150.575 329.72347656 -151.52890625 330.02898437 -152.51171875 330.34375 C-167.95841311 334.45864809 -182.54406594 332.13891472 -196.74609375 325.35546875 C-197.4124585 325.04480469 -198.07882324 324.73414063 -198.76538086 324.4140625 C-202.42859229 322.56426279 -204.97468226 320.6382171 -207.60009766 317.45996094 C-208.3858165 316.51694122 -208.3858165 316.51694122 -209.18740845 315.55487061 C-209.5780246 315.07656799 -209.96864075 314.59826538 -210.37109375 314.10546875 C-209.43956702 313.1767074 -208.50804029 312.24794605 -207.54828548 311.29104042 C-185.41427208 289.2220621 -163.28806391 267.14529123 -141.17137786 245.05894885 C-138.44658445 242.33790736 -135.72172556 239.61693146 -132.99682617 236.89599609 C-132.45437046 236.35432731 -131.91191474 235.81265853 -131.35302097 235.25457554 C-122.58039312 226.49498599 -113.80247667 217.74071468 -105.02257907 208.98841245 C-96.00737613 200.0013076 -86.99791543 191.00847599 -77.99371105 182.01035154 C-72.44169569 176.46244349 -66.88529985 170.91899972 -61.32313878 165.38126318 C-57.05175072 161.12767318 -52.78839387 156.8661234 -48.52791023 152.60160828 C-46.78386055 150.85838173 -45.03725179 149.117711 -43.28785706 147.37984848 C-40.89229724 144.99930402 -38.50627749 142.60957259 -36.12229919 140.21743774 C-35.43453649 139.53841357 -34.74677379 138.85938939 -34.0381698 138.15978873 C-21.44832663 125.45387952 -13.58456682 110.18663775 -13.37109375 92.10546875 C-14.17873628 78.8391924 -18.41681739 67.70438943 -26.37109375 57.10546875 C-26.98855469 56.27917969 -27.60601563 55.45289063 -28.2421875 54.6015625 C-36.74985774 44.62651428 -50.60033314 38.27953843 -63.5480957 36.86816406 C-80.36616932 35.86058733 -95.42931324 39.42329573 -108.30743003 50.81889582 C-113.96556792 56.1199797 -119.39183339 61.65796252 -124.8425293 67.17041016 C-126.69233145 69.02625841 -128.54304371 70.8811999 -130.39459229 72.73530579 C-134.36666411 76.71547518 -138.33153003 80.7027044 -142.2916317 84.69478226 C-148.02430755 90.47345756 -153.76962072 96.23943801 -159.51827476 102.0022134 C-168.85644287 111.36371969 -178.18673992 120.73302678 -187.51098633 130.10839844 C-188.06789352 130.66835457 -188.62480071 131.2283107 -189.19858388 131.80523519 C-191.45513291 134.07416824 -193.71165589 136.3431272 -195.96814705 138.6121178 C-202.18518808 144.86351535 -208.40339601 151.11375137 -214.62231445 157.36328125 C-215.17944343 157.92315733 -215.73657241 158.48303342 -216.31058409 159.05987544 C-225.60795498 168.40267739 -234.91131452 177.73949653 -244.21853095 187.0724901 C-249.95048111 192.82096088 -255.67674229 198.57499075 -261.39568875 204.33639918 C-265.77703392 208.74958484 -270.16592551 213.15519241 -274.55758667 217.55811119 C-276.35491248 219.36264544 -278.14963585 221.16977608 -279.94153786 222.97969627 C-282.39008202 225.45217303 -284.84778474 227.91518025 -287.3079071 230.37612915 C-288.01249028 231.09217933 -288.71707346 231.80822952 -289.44300765 232.54597819 C-296.97101515 240.03444176 -304.67657139 245.34568399 -315.62109375 245.48046875 C-324.20252128 245.30473986 -330.43682136 243.25806613 -336.74609375 237.35546875 C-341.26602792 232.45202501 -344.71280955 226.85288184 -345.37109375 220.10546875 C-345.43425781 219.47253906 -345.49742187 218.83960938 -345.5625 218.1875 C-345.96325365 210.88344161 -344.24823032 203.89478372 -339.77668953 198.0055685 C-331.63337846 189.15035706 -323.10385678 180.67428257 -314.60498047 172.16235352 C-312.80517192 170.3562705 -311.00555028 168.55000122 -309.20610046 166.74356079 C-303.83204268 161.35038939 -298.45377699 155.9614296 -293.07461613 150.57334867 C-291.04284176 148.53805592 -289.01138118 146.50245012 -286.97993597 144.46682884 C-278.00422555 135.47267177 -269.02716583 126.47986395 -260.04607964 117.49107456 C-257.85590542 115.29899099 -255.66573674 113.10690188 -253.47558594 110.91479492 C-252.93134637 110.37007162 -252.38710681 109.82534832 -251.82637514 109.26411825 C-243.01308564 100.44253065 -234.20835251 91.61245454 -225.40716563 82.77879394 C-216.34147828 73.67993357 -207.26818061 64.58871794 -198.18748486 55.50483555 C-193.1010365 50.41623258 -188.01785785 45.32445916 -182.94320297 40.22409248 C-178.16708492 35.42382824 -173.38065939 30.63407998 -168.58733559 25.85098648 C-166.83888263 24.1030262 -165.09379156 22.35169493 -163.35250282 20.59659767 C-149.02289825 6.15982012 -135.02596468 -5.58276077 -116.37109375 -13.89453125 C-115.31664062 -14.37664062 -114.2621875 -14.85875 -113.17578125 -15.35546875 C-76.1381546 -30.98515774 -31.76136211 -23.90192753 0 0 Z " fill="#000000" transform="translate(554.37109375,206.89453125)"/>
<path d="M0 0 C2.79697715 2.21353128 5.41659148 4.54426476 8 7 C3.76241454 12.06110557 -0.66583983 16.80099889 -5.34933472 21.44940186 C-6.42661557 22.5247893 -6.42661557 22.5247893 -7.52565968 23.62190175 C-9.91822121 26.00911179 -12.31434436 28.39271411 -14.71044922 30.77636719 C-16.43256016 32.49328144 -18.15442685 34.21044071 -19.87606812 35.92782593 C-23.577503 39.61933808 -27.28036584 43.30941159 -30.98434067 46.99837494 C-36.84645851 52.83703002 -42.70331374 58.68094867 -48.55935669 64.5256958 C-50.5669199 66.52925821 -52.57451706 68.53278659 -54.58212471 70.53630447 C-55.08376124 71.03692177 -55.58539776 71.53753907 -56.1022354 72.05332659 C-61.80344542 77.74281036 -67.5057319 83.43121469 -73.20849609 89.11914062 C-73.98978115 89.89839704 -73.98978115 89.89839704 -74.78684975 90.693396 C-83.22346043 99.10783607 -91.66391299 107.51841425 -100.10534249 115.92801961 C-108.78958042 124.57979975 -117.46799478 133.23739302 -126.14151394 141.89991879 C-131.48169316 147.23289993 -136.82653117 152.56112273 -142.17758681 157.8831909 C-146.28404672 161.96829914 -150.38255539 166.06131135 -154.47824478 170.15721512 C-156.15252957 171.82908779 -157.82937548 173.49840039 -159.5090332 175.16487503 C-175.77348345 191.30702975 -188.73806948 205.75874941 -189.04980469 229.93554688 C-188.770802 241.50048163 -185.39839408 252.95209662 -178.3125 262.203125 C-177 264 -177 264 -177 266 C-176.34 266 -175.68 266 -175 266 C-173.64613064 267.65002828 -172.31321858 269.3174387 -171 271 C-170.34 271.33 -169.68 271.66 -169 272 C-169 272.66 -169 273.32 -169 274 C-168.0409375 274.3403125 -168.0409375 274.3403125 -167.0625 274.6875 C-164.51112566 275.78094615 -162.31604002 276.96949908 -159.9375 278.375 C-145.51233919 286.4607452 -130.8594482 287.51783334 -115.015625 283.18359375 C-104.53924352 279.64707514 -96.3379664 273.94921823 -88.65161133 266.10571289 C-87.48556602 264.94056074 -87.48556602 264.94056074 -86.29596424 263.75187016 C-83.71503924 261.16818559 -81.14866722 258.57052993 -78.58203125 255.97265625 C-76.72577723 254.10871903 -74.86860559 252.24569526 -73.0105896 250.3835144 C-69.02110597 246.38252766 -65.03878815 242.37452455 -61.06112671 238.36178589 C-55.30136845 232.55161368 -49.52850793 226.75459834 -43.75207913 220.96100485 C-34.3670464 211.54775245 -24.98952189 202.12706106 -15.61816406 192.70019531 C-15.05822538 192.13694538 -14.49828669 191.57369544 -13.92138016 190.99337733 C-9.94738625 186.99578419 -5.97366179 182.99792327 -2 179 C2.53920214 174.43308343 7.07852618 169.86628812 11.61816406 165.29980469 C12.17741196 164.73724429 12.73665985 164.17468389 13.31285465 163.5950762 C22.65126935 154.20184167 31.99759745 144.81651931 41.34955692 135.43677044 C47.10841422 129.66003554 52.86007607 123.87631194 58.60250401 118.08324409 C63.00545774 113.64247828 67.41863697 109.21200669 71.83558273 104.78516006 C73.641018 102.97225194 75.4429997 101.15589673 77.24119949 99.33581161 C79.7021063 96.84590888 82.17522264 94.36877896 84.65161133 91.89428711 C85.70660717 90.8177215 85.70660717 90.8177215 86.78291607 89.71940708 C94.4692791 82.09558951 102.14330717 76.93888815 113.125 76.6875 C121.7833345 76.79415362 128.00749038 78.79291918 134.375 84.75 C140.57712634 91.47836736 143.39695239 98.58034791 143.20703125 107.765625 C142.03001282 120.4685409 133.74977624 128.55741694 125.10176086 137.15893555 C124.33653884 137.92798312 123.57131681 138.6970307 122.78290623 139.48938274 C120.23929554 142.04324203 117.68867009 144.5899722 115.13793945 147.13671875 C113.30377765 148.97523154 111.47003303 150.81416061 109.63667297 152.6534729 C105.18550935 157.11733814 100.72893237 161.57575984 96.27024088 166.03210473 C92.64286195 169.65769507 89.01726517 173.28505847 85.39290428 176.91366577 C84.87554947 177.43161577 84.35819466 177.94956577 83.82516244 178.48321122 C82.77388481 179.5357007 81.72260833 180.58819131 80.67133298 181.64068305 C70.82808849 191.49478582 60.97835495 201.34238239 51.12662777 211.18800342 C42.13346423 220.1760006 33.14853514 229.17217799 24.16746829 238.17226112 C14.92489441 247.43425336 5.67672863 256.6906281 -3.57743484 265.94104099 C-8.76449202 271.12619203 -13.94936101 276.31348514 -19.12836266 281.50668335 C-24.00101044 286.39255358 -28.88152595 291.27044627 -33.76729012 296.14319992 C-35.55319772 297.92675006 -37.33658226 299.71283097 -39.11716461 301.50169754 C-65.15181285 327.64866433 -93.65541825 345.34762948 -131.6875 345.5625 C-165.54029617 345.17911612 -194.78825392 331.91578783 -218.4465332 307.97119141 C-238.3297394 287.11082563 -248.66431814 258.30928374 -248.4375 229.75 C-248.43445862 229.0787912 -248.43141724 228.4075824 -248.42828369 227.71603394 C-248.35295825 216.41671516 -247.36442491 205.81019936 -244 195 C-243.78569336 194.30422852 -243.57138672 193.60845703 -243.35058594 192.89160156 C-236.13539723 170.27980928 -221.7979188 153.3318291 -205.23803711 136.84985352 C-203.77273238 135.38047406 -202.30806451 133.91045928 -200.84397888 132.43986511 C-196.90063322 128.4829522 -192.94798984 124.53545575 -188.99308085 120.59010434 C-184.83946679 116.44413639 -180.69323467 112.29079602 -176.54579163 108.13865662 C-169.58693461 101.17435883 -162.62181458 94.21637199 -155.65307617 87.26196289 C-147.60962087 79.23485648 -139.57706405 71.19696565 -131.5500316 63.1534391 C-124.63723032 56.22700568 -117.71857742 49.3064581 -110.79503638 42.39075989 C-106.66868343 38.26907062 -102.54435257 34.14541284 -98.42530632 30.01642036 C-94.55538826 26.13780888 -90.6781522 22.26666209 -86.79525185 18.40104866 C-85.37575515 16.98550297 -83.95877589 15.5674274 -82.54457855 14.14658737 C-65.43900451 -3.03188553 -65.43900451 -3.03188553 -53.25 -6.8125 C-51.99703125 -7.21082031 -50.7440625 -7.60914063 -49.453125 -8.01953125 C-32.52455756 -12.82617201 -14.6195482 -9.89380252 0 0 Z " fill="#000000" transform="translate(248,71)"/>
<path d="M0 0 C7.03994245 5.47702086 10.67216114 12.18373792 11.875 21 C12.49845758 31.64799912 8.40037558 39.84700484 1.40234375 47.8203125 C0 49 0 49 -2 49 C-2.25591919 49.58058167 -2.51183838 50.16116333 -2.7755127 50.75933838 C-4.12123003 53.22183608 -5.61170814 54.86562621 -7.59179688 56.85058594 C-8.32595825 57.59105164 -9.06011963 58.33151733 -9.81652832 59.09442139 C-10.60926147 59.88310608 -11.40199463 60.67179077 -12.21875 61.484375 C-13.03243042 62.29996887 -13.84611084 63.11556274 -14.68444824 63.95587158 C-16.40354646 65.67632978 -18.12516894 67.3942689 -19.84912109 69.10986328 C-22.49679634 71.74680932 -25.13361531 74.3942738 -27.76953125 77.04296875 C-29.439463 78.71157942 -31.11001478 80.37956986 -32.78125 82.046875 C-33.57398315 82.84365662 -34.36671631 83.64043823 -35.18347168 84.46136475 C-36.28471375 85.55315033 -36.28471375 85.55315033 -37.40820312 86.66699219 C-38.37844421 87.6348465 -38.37844421 87.6348465 -39.36828613 88.62225342 C-41 90 -41 90 -43 90 C-43.2165625 90.54140625 -43.433125 91.0828125 -43.65625 91.640625 C-45.46499997 94.81645344 -47.91723799 97.20728081 -50.5 99.75 C-50.99886719 100.25660156 -51.49773437 100.76320313 -52.01171875 101.28515625 C-55.74658861 105 -55.74658861 105 -58 105 C-58.25072266 105.57524414 -58.50144531 106.15048828 -58.75976562 106.74316406 C-60.16728827 109.30441196 -61.78170025 111.04057392 -63.84375 113.109375 C-64.97103516 114.24052734 -64.97103516 114.24052734 -66.12109375 115.39453125 C-66.90613281 116.17183594 -67.69117188 116.94914062 -68.5 117.75 C-69.67755859 118.93916016 -69.67755859 118.93916016 -70.87890625 120.15234375 C-71.63042969 120.90128906 -72.38195312 121.65023437 -73.15625 122.421875 C-73.84525391 123.10862305 -74.53425781 123.79537109 -75.24414062 124.50292969 C-77 126 -77 126 -79 126 C-79.25591919 126.58058167 -79.51183838 127.16116333 -79.7755127 127.75933838 C-81.12123003 130.22183608 -82.61170814 131.86562621 -84.59179688 133.85058594 C-85.32595825 134.59105164 -86.06011963 135.33151733 -86.81652832 136.09442139 C-87.60926147 136.88310608 -88.40199463 137.67179077 -89.21875 138.484375 C-90.03243042 139.29996887 -90.84611084 140.11556274 -91.68444824 140.95587158 C-93.40354646 142.67632978 -95.12516894 144.3942689 -96.84912109 146.10986328 C-99.49679634 148.74680932 -102.13361531 151.3942738 -104.76953125 154.04296875 C-106.439463 155.71157942 -108.11001478 157.37956986 -109.78125 159.046875 C-110.57398315 159.84365662 -111.36671631 160.64043823 -112.18347168 161.46136475 C-113.28471375 162.55315033 -113.28471375 162.55315033 -114.40820312 163.66699219 C-115.05503052 164.31222839 -115.70185791 164.9574646 -116.36828613 165.62225342 C-118 167 -118 167 -120 167 C-120 167.66 -120 168.32 -120 169 C-120.66 169 -121.32 169 -122 169 C-122 169.66 -122 170.32 -122 171 C-122.66 171 -123.32 171 -124 171 C-124.20625 171.53109375 -124.4125 172.0621875 -124.625 172.609375 C-126.57961192 176.00773436 -129.22123717 178.51055928 -132 181.25 C-132.5465625 181.80429687 -133.093125 182.35859375 -133.65625 182.9296875 C-137.7466133 187 -137.7466133 187 -140 187 C-140.33 187.99 -140.66 188.98 -141 190 C-141.66 190 -142.32 190 -143 190 C-143 190.66 -143 191.32 -143 192 C-143.66 192 -144.32 192 -145 192 C-145.2475 192.61875 -145.495 193.2375 -145.75 193.875 C-147.20628639 196.35068687 -148.37812506 196.95125002 -151 198 C-151 198.66 -151 199.32 -151 200 C-152.875 202.125 -152.875 202.125 -155 204 C-155.66 204 -156.32 204 -157 204 C-157.35578125 204.84256348 -157.35578125 204.84256348 -157.71875 205.70214844 C-159.29319357 208.52582658 -161.21684545 210.47614842 -163.5 212.765625 C-164.386875 213.65507812 -165.27375 214.54453125 -166.1875 215.4609375 C-167.115625 216.38132812 -168.04375 217.30171875 -169 218.25 C-169.928125 219.18585938 -170.85625 220.12171875 -171.8125 221.0859375 C-172.699375 221.97023438 -173.58625 222.85453125 -174.5 223.765625 C-175.3146875 224.57805664 -176.129375 225.39048828 -176.96875 226.22753906 C-179 228 -179 228 -181 228 C-181.33 228.99 -181.66 229.98 -182 231 C-204.63597319 252.88876631 -235.33162356 263.64258919 -266.46142578 263.28100586 C-297.84214371 262.49576352 -324.72933391 250.18513585 -346.8515625 228.15625 C-353.34915323 221.11452606 -354.7009626 214.11577911 -354.4765625 204.609375 C-353.50387588 197.24246978 -350.15475871 190.63516267 -344.75 185.5 C-336.57262849 179.46517124 -328.03126131 177.7982726 -318 179 C-311.0121947 180.68825376 -306.13231864 185.19833859 -300.75390625 189.75390625 C-287.17580022 200.82824804 -272.14441119 204.10570752 -255 203 C-233.20132226 199.8468883 -219.53500694 183.8188227 -204.80981445 168.98925781 C-202.97781101 167.15177295 -201.14533996 165.31475421 -199.31243896 163.47816467 C-195.38019849 159.53678368 -191.45147595 155.59192496 -187.52501869 151.64478302 C-181.84206335 145.93216603 -176.15204982 140.22661948 -170.4600568 134.52300903 C-161.21507407 125.25905759 -151.97348021 115.99173445 -142.73510742 106.72119141 C-142.18335365 106.1675197 -141.63159987 105.61384799 -141.06312629 105.04339835 C-134.90253678 98.8612456 -128.74276076 92.67828324 -122.5838623 86.4944458 C-120.34717811 84.2487285 -118.11048548 82.00301961 -115.8737793 79.75732422 C-115.32179618 79.20311945 -114.76981307 78.64891467 -114.20110319 78.07791582 C-104.99317752 68.83325437 -95.77941784 59.59443145 -86.56107873 50.36015391 C-80.88284564 44.67160096 -75.20969341 38.97807202 -69.54303291 33.27799049 C-65.20342119 28.91360436 -60.85609954 24.55697489 -56.50588989 20.20315361 C-54.7242905 18.41753385 -52.9452791 16.62932761 -51.16905785 14.83835793 C-48.74416855 12.39406161 -46.31018163 9.95919509 -43.87373352 7.52642822 C-43.17333728 6.81592921 -42.47294103 6.10543021 -41.75132066 5.37340093 C-30.38721043 -5.90899533 -13.84728638 -9.94486931 0 0 Z " fill="#000000" transform="translate(502,276)"/>
<path d="M0 0 C6.75177172 5.78438346 12.45012039 12.57271864 13.23828125 21.78515625 C13.46419508 31.76103553 11.77765014 39.96768924 4.84765625 47.46484375 C-3.41036632 54.3261606 -12.59317534 55.8096843 -23 55 C-30.45964218 53.41829937 -35.08181752 49.39750098 -40.50390625 44.24609375 C-53.07968951 32.92985686 -68.35101034 30.19231142 -84.63232422 30.82080078 C-107.94131657 32.58495838 -123.6208219 52.47994099 -138.89892578 67.84887695 C-140.69995682 69.65674699 -142.50124343 71.46436244 -144.30276489 73.27174377 C-148.16607683 77.14833277 -152.02797069 81.02632608 -155.88882828 84.90535927 C-161.99525463 91.0401407 -168.10758142 97.16902521 -174.22091675 103.29692078 C-176.31740929 105.39853599 -178.41387607 107.50017691 -180.51034355 109.60181713 C-181.03406317 110.12682278 -181.55778278 110.65182843 -182.09737269 111.19274333 C-188.04179534 117.15186182 -193.98531775 123.11187767 -199.92822266 129.07250977 C-200.47074228 129.61664413 -201.01326189 130.16077849 -201.5722215 130.72140177 C-210.37786172 139.55361958 -219.17788482 148.39141672 -227.97632779 157.23080347 C-237.02751378 166.32374825 -246.08636543 175.40900734 -255.15193164 184.48761529 C-260.73472649 190.07899195 -266.31123941 195.6764876 -271.8797643 201.28207668 C-276.14496906 205.57446442 -280.42060542 209.85630449 -284.70020676 214.1343441 C-286.45162112 215.88845512 -288.19960232 217.6460018 -289.94386292 219.40722656 C-292.32671291 221.81224213 -294.72162651 224.20457473 -297.11990356 226.5941925 C-298.1486194 227.64140857 -298.1486194 227.64140857 -299.19811738 228.70978051 C-306.87648237 236.30144471 -314.26021741 239.33162337 -325.09375 239.38500977 C-333.382883 239.20104988 -339.02877567 236.11390232 -344.9375 230.5 C-350.75812611 224.13283622 -352.43730431 218.06426123 -353.375 209.625 C-352.27171604 198.95992177 -347.10889212 191.75039436 -340 184 C-339.45472656 183.401875 -338.90945313 182.80375 -338.34765625 182.1875 C-337 181 -337 181 -335 181 C-334.731875 180.401875 -334.46375 179.80375 -334.1875 179.1875 C-333.00082594 177.00152146 -331.90400887 175.58667406 -330 174 C-329.34 174 -328.68 174 -328 174 C-327.01 172.02 -327.01 172.02 -326 170 C-325.34 170 -324.68 170 -324 170 C-323.73574219 169.4112207 -323.47148437 168.82244141 -323.19921875 168.21582031 C-321.95631056 165.91927416 -320.64993519 164.39166834 -318.8125 162.546875 C-318.19632813 161.928125 -317.58015625 161.309375 -316.9453125 160.671875 C-316.30335938 160.03765625 -315.66140625 159.4034375 -315 158.75 C-314.03707031 157.77546875 -314.03707031 157.77546875 -313.0546875 156.78125 C-312.43851563 156.16765625 -311.82234375 155.5540625 -311.1875 154.921875 C-310.62417969 154.36081055 -310.06085938 153.79974609 -309.48046875 153.22167969 C-308 152 -308 152 -306 152 C-305.731875 151.360625 -305.46375 150.72125 -305.1875 150.0625 C-304 148 -304 148 -301 147 C-300.67 146.34 -300.34 145.68 -300 145 C-299 143 -299 143 -296 142 C-295.71125 141.4225 -295.4225 140.845 -295.125 140.25 C-293.60387378 137.20774755 -291.51286104 135.26157493 -289 133 C-288.34 133 -287.68 133 -287 133 C-286.34 131.68 -285.68 130.36 -285 129 C-284.34 129 -283.68 129 -283 129 C-282.7313916 128.40614502 -282.4627832 127.81229004 -282.18603516 127.20043945 C-280.99467768 124.99012555 -279.79788102 123.55352817 -278.0234375 121.79296875 C-277.43433594 121.20580078 -276.84523438 120.61863281 -276.23828125 120.01367188 C-275.62339844 119.41103516 -275.00851562 118.80839844 -274.375 118.1875 C-273.78332031 117.59646484 -273.19164062 117.00542969 -272.58203125 116.39648438 C-269.57708196 113.42074086 -266.51704125 110.55512996 -263.3034668 107.80566406 C-258.80621684 103.88566581 -254.58257515 99.72681405 -250.37109375 95.50390625 C-249.1810952 94.31534279 -249.1810952 94.31534279 -247.96705627 93.10276794 C-246.30110919 91.43749717 -244.63640744 89.77097971 -242.97290039 88.10327148 C-240.44463866 85.56965378 -237.91108339 83.04141833 -235.37695312 80.51367188 C-233.7496793 78.88573717 -232.12271575 77.25749225 -230.49609375 75.62890625 C-229.74798935 74.88282608 -228.99988495 74.13674591 -228.22911072 73.36805725 C-224.17621829 69.29728261 -220.28607456 65.14239026 -216.54879761 60.77928162 C-214.04539057 57.90333056 -211.38092282 55.19686269 -208.6875 52.5 C-208.16349609 51.96375 -207.63949219 51.4275 -207.09960938 50.875 C-205.77253198 49.54282499 -204.39041258 48.26592951 -203 47 C-202.34 47 -201.68 47 -201 47 C-200.60361328 46.11683105 -200.60361328 46.11683105 -200.19921875 45.21582031 C-198.95631056 42.91927416 -197.64993519 41.39166834 -195.8125 39.546875 C-195.19632813 38.928125 -194.58015625 38.309375 -193.9453125 37.671875 C-193.30335938 37.03765625 -192.66140625 36.4034375 -192 35.75 C-191.35804688 35.1003125 -190.71609375 34.450625 -190.0546875 33.78125 C-189.43851563 33.16765625 -188.82234375 32.5540625 -188.1875 31.921875 C-187.62417969 31.36081055 -187.06085938 30.79974609 -186.48046875 30.22167969 C-185 29 -185 29 -183 29 C-182.67 28.01 -182.34 27.02 -182 26 C-181.34 26 -180.68 26 -180 26 C-179.731875 25.360625 -179.46375 24.72125 -179.1875 24.0625 C-178 22 -178 22 -175 21 C-174.67 20.01 -174.34 19.02 -174 18 C-173.34 18 -172.68 18 -172 18 C-171.67 17.01 -171.34 16.02 -171 15 C-170.34 15 -169.68 15 -169 15 C-169 14.34 -169 13.68 -169 13 C-168.34 13 -167.68 13 -167 13 C-166.67 12.01 -166.34 11.02 -166 10 C-165.34 10 -164.68 10 -164 10 C-164 9.34 -164 8.68 -164 8 C-163.34 8 -162.68 8 -162 8 C-162 7.34 -162 6.68 -162 6 C-161.34 6 -160.68 6 -160 6 C-159.79632813 5.44699219 -159.59265625 4.89398438 -159.3828125 4.32421875 C-157.4668775 1.10393253 -154.79635194 -0.92634962 -151.875 -3.1875 C-151.25898926 -3.66654785 -150.64297852 -4.1455957 -150.00830078 -4.63916016 C-103.98401562 -39.50674282 -43.62050609 -35.94501108 0 0 Z " fill="#000000" transform="translate(439,90)"/>
</svg>
