<?xml version="1.0" encoding="UTF-8"?>
<svg version="1.1" xmlns="http://www.w3.org/2000/svg" width="600" height="600">
<path d="M0 0 C198 0 396 0 600 0 C600 198 600 396 600 600 C402 600 204 600 0 600 C0 402 0 204 0 0 Z " fill="#FEFEFE" transform="translate(0,0)"/>
<path d="M0 0 C1.96734799 0.47437293 3.93479562 0.94833284 5.90234375 1.421875 C16.16758998 3.9760486 25.68662548 7.07764531 35.06591797 11.99755859 C37.18397046 13.09535253 39.32584734 14.13541514 41.47265625 15.17578125 C58.99164074 23.82771188 74.06667569 35.37493508 88 49 C88.97066406 49.89525391 88.97066406 49.89525391 89.9609375 50.80859375 C116.37485967 75.67240311 135.65529839 117.36104083 137.14526367 153.52587891 C137.16563334 156.84591551 137.18568322 160.16574084 137.18530273 163.48583984 C137.18747313 165.59884287 137.20562524 167.71130884 137.22460938 169.82421875 C137.26015586 178.38139139 136.56001968 186.57134645 135 195 C134.77266768 196.40200937 134.54709305 197.8043063 134.32421875 199.20703125 C131.63996778 214.40680822 127.0506112 228.26897676 120 242 C119.64309082 242.70382812 119.28618164 243.40765625 118.91845703 244.1328125 C98.65050971 283.67321124 65.91836802 310.09734797 26 328 C24.700625 328.59941406 24.700625 328.59941406 23.375 329.2109375 C-19.07232868 347.63425724 -70.32830577 344.35263215 -112.671875 328.03271484 C-118.54795123 325.69675196 -124.13324455 323.07991198 -129.625 319.93359375 C-133.20167633 318.52763052 -135.36420889 319.30329036 -138.82568359 320.77758789 C-140.96342635 321.75646529 -143.07567614 322.7789502 -145.1875 323.8125 C-146.72445317 324.54596479 -148.26220879 325.27775055 -149.80078125 326.0078125 C-150.53377441 326.35618164 -151.26676758 326.70455078 -152.02197266 327.06347656 C-165.85727508 333.61398509 -180.7170084 336.80112484 -195.75 339.3125 C-197.23802124 339.56966797 -197.23802124 339.56966797 -198.75610352 339.83203125 C-204.50884401 340.73745479 -210.06439301 341.07952582 -215.89160156 341.04370117 C-216.57876251 341.04054649 -217.26592346 341.03739182 -217.97390747 341.03414154 C-219.64929048 341.02599137 -221.32465119 341.0134543 -223 341 C-223.070331 316.85055122 -223.12310554 292.70111797 -223.15543652 268.5515871 C-223.1708527 257.33652112 -223.1918409 246.12151907 -223.22631836 234.90649414 C-223.25638244 225.12234694 -223.27561305 215.33824608 -223.28226548 205.55405396 C-223.28614916 200.38169911 -223.29516458 195.20947674 -223.31719017 190.03716469 C-223.33782524 185.15097224 -223.34378034 180.26496457 -223.33932304 175.37873268 C-223.34013635 173.60244232 -223.34593883 171.82614459 -223.35761642 170.04989243 C-223.63930604 124.92027637 -207.03881864 83.70702876 -176 51 C-175.55430664 50.5270752 -175.10861328 50.05415039 -174.64941406 49.56689453 C-154.81076823 28.6457694 -129.33061587 13.06459725 -102 4 C-101.3704541 3.78005371 -100.7409082 3.56010742 -100.09228516 3.33349609 C-68.21942172 -7.734711 -32.47917305 -8.34006061 0 0 Z " fill="#FEDD2D" transform="translate(433,132)"/>
<path d="M0 0 C0.66791565 0.00087616 1.3358313 0.00175232 2.02398682 0.00265503 C33.43201397 0.13696475 65.09214732 7.43165057 92.3125 23.375 C89.95123344 25.96004672 87.42754206 27.63194048 84.4375 29.4375 C73.9077868 36.04465161 64.33757558 43.83854316 55.3125 52.375 C54.00539063 53.58542969 54.00539063 53.58542969 52.671875 54.8203125 C35.60172316 71.1588864 22.54892883 92.28045283 14.3125 114.375 C13.87550781 115.53644531 13.43851563 116.69789063 12.98828125 117.89453125 C10.50097815 124.90827783 8.6149342 131.91681394 7.0625 139.1875 C6.89927246 139.95151123 6.73604492 140.71552246 6.56787109 141.50268555 C4.20020837 153.20862188 4.14634966 164.87299711 4.10717773 176.76806641 C4.0975852 178.62173677 4.08757434 180.47540501 4.07717896 182.32907104 C4.05027276 187.33656996 4.02918635 192.34407817 4.00917697 197.35160875 C3.98722873 202.59399109 3.95988349 207.83634527 3.93312073 213.07870483 C3.88331287 222.9948272 3.83833012 232.9109653 3.79509836 242.82711828 C3.7456239 254.12098705 3.69074379 265.41482756 3.63541877 276.70866895 C3.52178163 299.9307529 3.41490318 323.15286399 3.3125 346.375 C0.92624886 346.38900224 -1.45991877 346.39919039 -3.84619141 346.40722656 C-4.85070091 346.41370712 -4.85070091 346.41370712 -5.87550354 346.4203186 C-11.36886365 346.43416688 -16.64476428 345.98071557 -22.0625 345.125 C-22.95114746 344.98932617 -23.83979492 344.85365234 -24.75537109 344.71386719 C-63.93720795 338.50254004 -98.16548047 320.763953 -126.6875 293.375 C-127.2436499 292.84366455 -127.7997998 292.3123291 -128.37280273 291.76489258 C-132.65009452 287.5984084 -136.399084 283.19650792 -140 278.4375 C-140.83857544 277.33051758 -140.83857544 277.33051758 -141.6940918 276.20117188 C-168.91691998 239.77467541 -182.2359503 193.7182202 -175.8125 148.28515625 C-172.53764913 128.77558813 -166.17601095 110.692489 -156.6875 93.375 C-156.0996875 92.29605469 -155.511875 91.21710938 -154.90625 90.10546875 C-150.98028322 83.15472301 -146.55201665 76.69978432 -141.6875 70.375 C-140.67236328 69.05048828 -140.67236328 69.05048828 -139.63671875 67.69921875 C-111.81703983 32.55589493 -71.4348802 10.46169637 -27.6875 2.375 C-26.68887939 2.18953613 -25.69025879 2.00407227 -24.66137695 1.81298828 C-16.41816003 0.40660427 -8.35527066 -0.01220445 0 0 Z " fill="#327EFE" transform="translate(206.6875,126.625)"/>
<path d="M0 0 C0.68486984 0.00315468 1.36973969 0.00630936 2.07536316 0.00955963 C3.74248114 0.01769835 5.4095767 0.0302347 7.07666016 0.04370117 C7.12344996 24.72247976 7.15868317 49.40125167 7.1802845 74.08006573 C7.19058244 85.53972039 7.20461439 96.99934744 7.22753906 108.45898438 C7.24751837 118.45107521 7.26038736 128.44314604 7.26483715 138.4352563 C7.26743684 143.72245913 7.27351626 149.00960474 7.28812027 154.29678917 C7.301776 159.28142246 7.30586675 164.26597539 7.30287552 169.25062561 C7.30342212 171.07219696 7.30735167 172.89377123 7.31507111 174.71532631 C7.36844026 187.96785054 6.42217905 200.44575687 2.63916016 213.23120117 C2.41599121 214.00310791 2.19282227 214.77501465 1.96289062 215.5703125 C1.52718232 217.07406068 1.08855169 218.57696635 0.64648438 220.07885742 C0.1836178 221.67489435 -0.24771224 223.28005252 -0.66943359 224.88745117 C-2.76168217 232.68465083 -6.34591614 239.84220732 -9.92333984 247.04370117 C-10.23432617 247.67501953 -10.5453125 248.30633789 -10.86572266 248.95678711 C-31.98420643 291.43498344 -69.93090052 320.84964276 -113.92333984 337.04370117 C-124.25609389 340.46308148 -134.95631988 342.56584178 -145.67333984 344.35620117 C-147.16136108 344.61336914 -147.16136108 344.61336914 -148.67944336 344.87573242 C-154.43218386 345.78115596 -159.98773285 346.12322699 -165.81494141 346.08740234 C-166.50210236 346.08424767 -167.18926331 346.08109299 -167.89724731 346.07784271 C-169.57263032 346.06969255 -171.24799104 346.05715547 -172.92333984 346.04370117 C-172.99367084 321.89425239 -173.04644539 297.74481914 -173.07877636 273.59528828 C-173.09419255 262.38022229 -173.11518074 251.16522024 -173.1496582 239.95019531 C-173.17972229 230.16604811 -173.1989529 220.38194725 -173.20560533 210.59775513 C-173.209489 205.42540028 -173.21850442 200.25317791 -173.24053001 195.08086586 C-173.26116508 190.19467341 -173.26712018 185.30866574 -173.26266289 180.42243385 C-173.26347619 178.64614349 -173.26927867 176.86984576 -173.28095627 175.0935936 C-173.56264588 129.96397754 -156.96215848 88.75072993 -125.92333984 56.04370117 C-125.47764648 55.57077637 -125.03195312 55.09785156 -124.57275391 54.6105957 C-104.73410808 33.68947057 -79.25395571 18.10829842 -51.92333984 9.04370117 C-51.29379395 8.82375488 -50.66424805 8.60380859 -50.015625 8.37719727 C-40.61466399 5.11260877 -31.12829382 3.24016452 -21.29833984 1.73120117 C-20.20287842 1.55959473 -19.10741699 1.38798828 -17.97875977 1.21118164 C-11.94889192 0.35086129 -6.09432013 -0.03763483 0 0 Z " fill="#FE6446" transform="translate(382.92333984375,126.956298828125)"/>
</svg>
